<svg width="59" height="326" viewBox="0 0 59 326" fill="none" xmlns="http://www.w3.org/2000/svg">
<path d="M15.688 317.674L15.688 309.346L39.6171 309.346C40.4684 309.346 41.1532 309.106 41.6714 308.624C42.1525 308.106 42.3931 307.421 42.3931 306.57L42.3931 290.58L49.0555 290.58L49.0555 308.846C49.0555 311.511 48.2597 313.658 46.6682 315.287C45.0396 316.878 42.8928 317.674 40.2278 317.674L15.688 317.674ZM23.4608 285.852C21.129 285.852 19.2598 285.148 17.8533 283.742C16.4098 282.298 15.688 280.411 15.688 278.079L15.688 258.536C15.688 256.204 16.4098 254.335 17.8533 252.928C19.2598 251.485 21.129 250.763 23.4608 250.763L49 250.763L49 259.091L34.8979 259.091L34.8979 269.251C34.8979 269.695 35.046 270.028 35.3421 270.251L40.2834 274.692C40.5425 274.951 40.672 275.266 40.672 275.636L40.672 277.524L49 277.524L49 285.852L23.4608 285.852ZM25.1264 259.091C24.2751 259.091 23.6088 259.35 23.1277 259.868C22.6095 260.349 22.3504 261.016 22.3504 261.867L22.3504 274.748C22.3504 275.599 22.6095 276.284 23.1277 276.802C23.6089 277.283 24.2751 277.524 25.1264 277.524L34.0096 277.524L34.0096 273.915C34.0096 273.545 33.8801 273.23 33.621 272.971L28.6797 268.529C28.3836 268.307 28.2355 267.974 28.2355 267.53L28.2355 259.091L25.1264 259.091ZM49 208.737L49 219.064L35.5086 224.838C35.3236 224.912 35.157 225.023 35.009 225.171C34.8609 225.319 34.7869 225.485 34.7869 225.671L34.7869 231.445C34.7869 231.63 34.7128 231.796 34.5648 231.944C34.4167 232.092 34.2502 232.203 34.0651 232.277L27.1251 235.498L49 235.498L49 243.826L15.688 243.826L15.688 233.499L30.5118 227.336C30.6969 227.262 30.8635 227.151 31.0115 227.003C31.1596 226.818 31.2336 226.633 31.2336 226.448L31.2336 220.785C31.2336 220.6 31.3076 220.433 31.4557 220.285C31.6037 220.1 31.7703 219.97 31.9554 219.896L38.5067 217.065L15.688 217.065L15.688 208.737L49 208.737ZM15.688 201.535L15.688 178.55C15.688 176.773 15.9841 175.144 16.5763 173.664C17.1315 172.183 17.9273 170.925 18.9637 169.889C20 168.852 21.2585 168.056 22.739 167.501C24.2196 166.909 25.8482 166.613 27.6248 166.613L37.0632 166.613C38.8398 166.613 40.4684 166.909 41.949 167.501C43.4295 168.056 44.6879 168.852 45.7243 169.889C46.7607 170.925 47.575 172.183 48.1672 173.664C48.7224 175.144 49 176.773 49 178.55L49 201.535L15.688 201.535ZM42.3376 190.153L42.3376 180.604C42.3376 178.938 41.8379 177.606 40.8386 176.606C39.8022 175.57 38.4512 175.052 36.7856 175.052L27.9024 175.052C26.2368 175.052 24.9043 175.57 23.905 176.606C22.8686 177.606 22.3504 178.938 22.3504 180.604L22.3504 193.318L46.7792 193.318L42.3376 190.153ZM49 135.876L15.688 135.876L15.688 127.548L49 127.548L49 135.876ZM49 85.2266L49 95.5533L35.5086 101.327C35.3236 101.401 35.157 101.512 35.009 101.661C34.8609 101.809 34.7869 101.975 34.7869 102.16L34.7869 107.934C34.7869 108.119 34.7128 108.286 34.5648 108.434C34.4167 108.582 34.2502 108.693 34.0651 108.767L27.1251 111.987L49 111.987L49 120.315L15.688 120.315L15.688 109.989L30.5118 103.826C30.6969 103.752 30.8635 103.641 31.0115 103.493C31.1596 103.308 31.2336 103.123 31.2336 102.938L31.2336 97.2745C31.2336 97.0894 31.3076 96.9228 31.4557 96.7748C31.6037 96.5897 31.7703 96.4602 31.9553 96.3862L38.5067 93.5546L15.688 93.5546L15.688 85.2266L49 85.2266ZM23.4608 78.3023C21.1289 78.3023 19.2598 77.599 17.8533 76.1925C16.4097 74.749 15.688 72.8613 15.688 70.5295L15.688 44.6016L22.3504 48.9322L22.3504 67.1983C22.3504 68.0496 22.6095 68.7343 23.1277 69.2525C23.6088 69.7337 24.2751 69.9743 25.1264 69.9743L33.732 69.9743L33.732 66.3655C33.732 65.9953 33.6024 65.6807 33.3433 65.4216L28.4021 60.98C28.106 60.7579 27.9579 60.4248 27.9579 59.9807L27.9579 48.8767L34.6203 48.8767L34.6203 61.7018C34.6203 62.1459 34.7684 62.4791 35.0645 62.7011L40.0057 67.1427C40.2648 67.4018 40.3944 67.7164 40.3944 68.0866L40.3944 69.9743L49 69.9743L49 78.3023L23.4608 78.3023ZM15.7435 15.0459C15.7435 12.7141 16.4653 10.8449 17.9088 9.43838C19.3153 7.99486 21.1845 7.2731 23.5163 7.2731L41.2272 7.2731C43.559 7.2731 45.4467 7.99486 46.8902 9.43838C48.2967 10.8449 49 12.7141 49 15.0459L49 34.5889C49 36.9208 48.2967 38.8085 46.8902 40.252C45.4467 41.6585 43.559 42.3617 41.2272 42.3617L21.5176 42.3617L21.5176 35.4773C21.5176 35.1071 21.388 34.7925 21.1289 34.5334L16.1877 30.0918C15.8916 29.8697 15.7435 29.5366 15.7435 29.0925L15.7435 15.0459ZM39.5616 34.0337C40.4129 34.0337 41.0976 33.7932 41.6158 33.312C42.097 32.7938 42.3376 32.109 42.3376 31.2577L42.3376 18.3771C42.3376 17.5258 42.097 16.8596 41.6158 16.3784C41.0976 15.8602 40.4129 15.6011 39.5616 15.6011L25.1819 15.6011C24.3306 15.6011 23.6644 15.8602 23.1832 16.3784C22.665 16.8596 22.4059 17.5258 22.4059 18.3771L22.4059 31.5353L25.1819 34.0337L39.5616 34.0337Z" fill="#CF3A1B"/>
<g clip-path="url(#clip0_3_400)">
<g style="mix-blend-mode:plus-darker" opacity="0.7">
<rect width="441" height="2.99999" transform="matrix(0.781655 0.623711 0.623711 -0.781655 -57.3805 -99.2004)" fill="black"/>
<rect width="441" height="2.99999" transform="matrix(0.781655 0.623711 0.623711 -0.781655 -59.8753 -96.0738)" fill="black"/>
<rect width="441" height="2.99999" transform="matrix(0.781655 0.623711 0.623711 -0.781655 -62.3702 -92.9472)" fill="black"/>
<rect width="441" height="2.99999" transform="matrix(0.781655 0.623711 0.623711 -0.781655 -64.8651 -89.8205)" fill="black"/>
<rect width="441" height="2.99999" transform="matrix(0.781655 0.623711 0.623711 -0.781655 -67.3599 -86.6939)" fill="black"/>
<rect width="441" height="2.99999" transform="matrix(0.781655 0.623711 0.623711 -0.781655 -69.8547 -83.5673)" fill="black"/>
<rect width="441" height="2.99999" transform="matrix(0.781655 0.623711 0.623711 -0.781655 -72.3496 -80.4407)" fill="black"/>
<rect width="441" height="2.99999" transform="matrix(0.781655 0.623711 0.623711 -0.781655 -74.8445 -77.314)" fill="black"/>
<rect width="441" height="2.99999" transform="matrix(0.781655 0.623711 0.623711 -0.781655 -77.3393 -74.1874)" fill="black"/>
<rect width="441" height="2.99999" transform="matrix(0.781655 0.623711 0.623711 -0.781655 -79.8341 -71.0608)" fill="black"/>
<rect width="441" height="2.99999" transform="matrix(0.781655 0.623711 0.623711 -0.781655 -82.329 -67.9341)" fill="black"/>
<rect width="441" height="2.99999" transform="matrix(0.781655 0.623711 0.623711 -0.781655 -84.8239 -64.8075)" fill="black"/>
<rect width="441" height="2.99999" transform="matrix(0.781655 0.623711 0.623711 -0.781655 -87.3187 -61.6809)" fill="black"/>
<rect width="441" height="2.99999" transform="matrix(0.781655 0.623711 0.623711 -0.781655 -89.8136 -58.5543)" fill="black"/>
<rect width="441" height="2.99999" transform="matrix(0.781655 0.623711 0.623711 -0.781655 -92.3084 -55.4276)" fill="black"/>
<rect width="441" height="2.99999" transform="matrix(0.781655 0.623711 0.623711 -0.781655 -94.8033 -52.301)" fill="black"/>
<rect width="441" height="2.99999" transform="matrix(0.781655 0.623711 0.623711 -0.781655 -97.2981 -49.1744)" fill="black"/>
<rect width="441" height="2.99999" transform="matrix(0.781655 0.623711 0.623711 -0.781655 -99.793 -46.0477)" fill="black"/>
<rect width="441" height="2.99999" transform="matrix(0.781655 0.623711 0.623711 -0.781655 -102.288 -42.9211)" fill="black"/>
<rect width="441" height="2.99999" transform="matrix(0.781655 0.623711 0.623711 -0.781655 -104.783 -39.7945)" fill="black"/>
<rect width="441" height="2.99999" transform="matrix(0.781655 0.623711 0.623711 -0.781655 -107.278 -36.6678)" fill="black"/>
<rect width="441" height="2.99999" transform="matrix(0.781655 0.623711 0.623711 -0.781655 -109.772 -33.5412)" fill="black"/>
<rect width="441" height="2.99999" transform="matrix(0.781655 0.623711 0.623711 -0.781655 -112.267 -30.4146)" fill="black"/>
<rect width="441" height="2.99999" transform="matrix(0.781655 0.623711 0.623711 -0.781655 -114.762 -27.2879)" fill="black"/>
<rect width="441" height="2.99999" transform="matrix(0.781655 0.623711 0.623711 -0.781655 -117.257 -24.1613)" fill="black"/>
<rect width="441" height="2.99999" transform="matrix(0.781655 0.623711 0.623711 -0.781655 -119.752 -21.0347)" fill="black"/>
<rect width="441" height="2.99999" transform="matrix(0.781655 0.623711 0.623711 -0.781655 -122.247 -17.9081)" fill="black"/>
<rect width="441" height="2.99999" transform="matrix(0.781655 0.623711 0.623711 -0.781655 -124.742 -14.7814)" fill="black"/>
<rect width="441" height="2.99999" transform="matrix(0.781655 0.623711 0.623711 -0.781655 -127.236 -11.6548)" fill="black"/>
<rect width="441" height="2.99999" transform="matrix(0.781655 0.623711 0.623711 -0.781655 -129.731 -8.52815)" fill="black"/>
<rect width="441" height="2.99999" transform="matrix(0.781655 0.623711 0.623711 -0.781655 -132.226 -5.40152)" fill="black"/>
<rect width="441" height="2.99999" transform="matrix(0.781655 0.623711 0.623711 -0.781655 -134.721 -2.27489)" fill="black"/>
<rect width="441" height="2.99999" transform="matrix(0.781655 0.623711 0.623711 -0.781655 -137.216 0.85173)" fill="black"/>
<rect width="441" height="2.99999" transform="matrix(0.781655 0.623711 0.623711 -0.781655 -139.711 3.97836)" fill="black"/>
<rect width="441" height="2.99999" transform="matrix(0.781655 0.623711 0.623711 -0.781655 -142.205 7.105)" fill="black"/>
<rect width="441" height="2.99999" transform="matrix(0.781655 0.623711 0.623711 -0.781655 -144.7 10.2316)" fill="black"/>
<rect width="441" height="3" transform="matrix(0.781655 0.623711 0.623711 -0.781655 -147.195 13.3583)" fill="black"/>
<rect width="441" height="3" transform="matrix(0.781655 0.623711 0.623711 -0.781655 -149.69 16.4849)" fill="black"/>
<rect width="441" height="3" transform="matrix(0.781655 0.623711 0.623711 -0.781655 -152.185 19.6116)" fill="black"/>
<rect width="441" height="3" transform="matrix(0.781655 0.623711 0.623711 -0.781655 -154.68 22.7382)" fill="black"/>
<rect width="441" height="3" transform="matrix(0.781655 0.623711 0.623711 -0.781655 -157.175 25.8649)" fill="black"/>
<rect width="441" height="3" transform="matrix(0.781655 0.623711 0.623711 -0.781655 -159.67 28.9915)" fill="black"/>
<rect width="441" height="3" transform="matrix(0.781655 0.623711 0.623711 -0.781655 -162.164 32.1181)" fill="black"/>
<rect width="441" height="3" transform="matrix(0.781655 0.623711 0.623711 -0.781655 -164.659 35.2448)" fill="black"/>
<rect width="441" height="3" transform="matrix(0.781655 0.623711 0.623711 -0.781655 -167.154 38.3714)" fill="black"/>
<rect width="441" height="3" transform="matrix(0.781655 0.623711 0.623711 -0.781655 -169.649 41.4981)" fill="black"/>
<rect width="441" height="3" transform="matrix(0.781655 0.623711 0.623711 -0.781655 -172.144 44.6247)" fill="black"/>
<rect width="441" height="3" transform="matrix(0.781655 0.623711 0.623711 -0.781655 -174.639 47.7514)" fill="black"/>
<rect width="441" height="3" transform="matrix(0.781655 0.623711 0.623711 -0.781655 -177.134 50.878)" fill="black"/>
<rect width="441" height="3" transform="matrix(0.781655 0.623711 0.623711 -0.781655 -179.628 54.0046)" fill="black"/>
<rect width="441" height="3" transform="matrix(0.781655 0.623711 0.623711 -0.781655 -182.123 57.1313)" fill="black"/>
<rect width="441" height="3" transform="matrix(0.781655 0.623711 0.623711 -0.781655 -184.618 60.2579)" fill="black"/>
<rect width="441" height="3" transform="matrix(0.781655 0.623711 0.623711 -0.781655 -187.113 63.3846)" fill="black"/>
<rect width="441" height="3" transform="matrix(0.781655 0.623711 0.623711 -0.781655 -189.608 66.5112)" fill="black"/>
<rect width="441" height="3" transform="matrix(0.781655 0.623711 0.623711 -0.781655 -192.103 69.6379)" fill="black"/>
<rect width="441" height="3" transform="matrix(0.781655 0.623711 0.623711 -0.781655 -194.598 72.7645)" fill="black"/>
<rect width="441" height="3" transform="matrix(0.781655 0.623711 0.623711 -0.781655 -197.092 75.8911)" fill="black"/>
<rect width="441" height="3" transform="matrix(0.781655 0.623711 0.623711 -0.781655 -199.587 79.0178)" fill="black"/>
<rect width="441" height="3" transform="matrix(0.781655 0.623711 0.623711 -0.781655 -202.082 82.1444)" fill="black"/>
<rect width="441" height="3" transform="matrix(0.781655 0.623711 0.623711 -0.781655 -204.577 85.2711)" fill="black"/>
<rect width="441" height="3" transform="matrix(0.781655 0.623711 0.623711 -0.781655 -207.072 88.3977)" fill="black"/>
<rect width="441" height="3" transform="matrix(0.781655 0.623711 0.623711 -0.781655 -209.567 91.5244)" fill="black"/>
<rect width="441" height="3" transform="matrix(0.781655 0.623711 0.623711 -0.781655 -212.062 94.651)" fill="black"/>
<rect width="441" height="3" transform="matrix(0.781655 0.623711 0.623711 -0.781655 -214.557 97.7776)" fill="black"/>
<rect width="441" height="3" transform="matrix(0.781655 0.623711 0.623711 -0.781655 -217.051 100.904)" fill="black"/>
<rect width="441" height="2.99999" transform="matrix(0.781655 0.623711 0.623711 -0.781655 -219.546 104.031)" fill="black"/>
<rect width="441" height="2.99999" transform="matrix(0.781655 0.623711 0.623711 -0.781655 -222.041 107.158)" fill="black"/>
<rect width="441" height="2.99999" transform="matrix(0.781655 0.623711 0.623711 -0.781655 -224.536 110.284)" fill="black"/>
<rect width="441" height="2.99999" transform="matrix(0.781655 0.623711 0.623711 -0.781655 -227.031 113.411)" fill="black"/>
<rect width="441" height="2.99999" transform="matrix(0.781655 0.623711 0.623711 -0.781655 -229.526 116.537)" fill="black"/>
<rect width="441" height="2.99999" transform="matrix(0.781655 0.623711 0.623711 -0.781655 -232.02 119.664)" fill="black"/>
<rect width="441" height="3" transform="matrix(0.781655 0.623711 0.623711 -0.781655 -234.515 122.791)" fill="black"/>
<rect width="441" height="3" transform="matrix(0.781655 0.623711 0.623711 -0.781655 -237.01 125.917)" fill="black"/>
<rect width="441" height="3" transform="matrix(0.781655 0.623711 0.623711 -0.781655 -239.505 129.044)" fill="black"/>
<rect width="441" height="2.99999" transform="matrix(0.781655 0.623711 0.623711 -0.781655 -242 132.171)" fill="black"/>
</g>
</g>
<rect x="9" width="50" height="326" fill="url(#paint0_linear_3_400)"/>
<defs>
<linearGradient id="paint0_linear_3_400" x1="91.2368" y1="-65.8832" x2="-85.0643" y2="282.378" gradientUnits="userSpaceOnUse">
<stop offset="0.0209391"/>
<stop offset="0.534016" stop-opacity="0"/>
<stop offset="1" stop-opacity="0.724793"/>
</linearGradient>
<clipPath id="clip0_3_400">
<rect width="323" height="49" fill="white" transform="translate(0 323) rotate(-90)"/>
</clipPath>
</defs>
</svg>
